<?xml version="1.0" encoding="UTF-8" standalone="no"?><!DOCTYPE svg PUBLIC "-//W3C//DTD SVG 1.1//EN" "http://www.w3.org/Graphics/SVG/1.1/DTD/svg11.dtd"><svg width="100%" height="100%" viewBox="0 0 48 57" version="1.1" xmlns="http://www.w3.org/2000/svg" xmlns:xlink="http://www.w3.org/1999/xlink" xml:space="preserve" xmlns:serif="http://www.serif.com/" style="fill-rule:evenodd;clip-rule:evenodd;stroke-linejoin:round;stroke-miterlimit:2;"><g><path d="M2.917,36.513l15.555,6.805l4.861,-2.916l0,-0.973l-15.555,-6.805l-4.861,2.917l-0,0.972Z" style="fill:none;stroke:#505151;stroke-width:1.94px;"/><path d="M43.75,36.513l-15.556,6.805l-4.861,-2.916l0,-0.973l15.556,-6.805l4.861,2.917l0,0.972Z" style="fill:none;stroke:#505151;stroke-width:1.94px;"/><path d="M9.722,30.801l-1.944,0.851l-4.861,-2.917l-0,-0.972l3.888,-1.702" style="fill:none;stroke:#505151;stroke-width:1.94px;"/><path d="M36.94,30.799l1.949,0.853l4.861,-2.917l0,-0.972l-3.89,-1.702" style="fill:none;stroke:#505151;stroke-width:1.94px;"/><path d="M23.333,40.402l0,13.611" style="fill:none;stroke:#505151;stroke-width:1.94px;"/><path d="M38.889,38.457l-0,8.75l-15.556,6.806l-15.555,-6.806l-0,-8.75" style="fill:none;stroke:#505151;stroke-width:1.94px;"/><path d="M23.333,24.846l0,9.722" style="fill:none;stroke:#505151;stroke-width:1.94px;"/><path d="M7.778,22.902l10.694,4.861l4.861,-2.917l0,-0.972l-10.694,-4.861l-4.861,2.916l-0,0.973Z" style="fill:none;stroke:#505151;stroke-width:1.94px;"/><path d="M12.639,24.846l-0,5.833" style="fill:none;stroke:#505151;stroke-width:1.94px;"/><path d="M38.889,22.902l-10.695,4.861l-4.861,-2.917l0,-0.972l10.695,-4.861l4.861,2.916l-0,0.973Z" style="fill:none;stroke:#505151;stroke-width:1.94px;"/><path d="M7.778,14.152l10.694,-4.861l4.861,2.916l0,0.972l-10.694,4.862l-4.861,-2.917l-0,-0.972Z" style="fill:none;stroke:#505151;stroke-width:1.94px;"/><path d="M38.889,14.152l-10.695,-4.861l-4.861,2.916l0,0.972l10.695,4.862l4.861,-2.917l-0,-0.972Z" style="fill:none;stroke:#505151;stroke-width:1.94px;"/><path d="M34.028,24.846l-0,5.833" style="fill:none;stroke:#505151;stroke-width:1.94px;"/></g></svg>