<?xml version="1.0" encoding="UTF-8" standalone="no"?>
<!DOCTYPE svg PUBLIC "-//W3C//DTD SVG 1.1//EN" "http://www.w3.org/Graphics/SVG/1.1/DTD/svg11.dtd">
<svg width="100%" height="100%" viewBox="0 0 48 48" version="1.1" xmlns="http://www.w3.org/2000/svg" xmlns:xlink="http://www.w3.org/1999/xlink" xml:space="preserve" xmlns:serif="http://www.serif.com/" style="fill-rule:evenodd;clip-rule:evenodd;stroke-linecap:round;stroke-linejoin:round;stroke-miterlimit:2;">
    <g transform="matrix(1,0,0,1,-381,-292)">
        <g>
            <path d="M418,339L385,339C383.343,339 382,337.657 382,336L382,296C382,294.343 383.343,293 385,293L418,293C419.105,293 420,293.895 420,295L420,337C420,338.105 419.105,339 418,339Z" style="fill:none;stroke:rgb(80,80,86);stroke-width:2px;"/>
            <path d="M390,307L390,339" style="fill:none;stroke:rgb(80,80,86);stroke-width:2px;"/>
            <path d="M390,293L390,301" style="fill:none;stroke:rgb(80,80,86);stroke-width:2px;"/>
            <path d="M398,328L406,328" style="fill:none;stroke:rgb(80,80,86);stroke-width:2px;"/>
            <path d="M398,321L412,321" style="fill:none;stroke:rgb(80,80,86);stroke-width:2px;"/>
            <path d="M423,300L428,300L428,307L423,307" style="fill:none;stroke:rgb(80,80,86);stroke-width:2px;"/>
            <path d="M423,312L428,312L428,319L423,319" style="fill:none;stroke:rgb(80,80,86);stroke-width:2px;"/>
            <path d="M405.216,306.662C404.928,306.662 404.676,306.746 404.46,306.914C404.244,307.082 404.061,307.295 403.911,307.553C403.761,307.811 403.646,308.096 403.568,308.408C403.49,308.72 403.452,309.02 403.452,309.308C403.452,309.452 403.467,309.605 403.497,309.767C403.526,309.929 403.587,310.079 403.677,310.217C403.767,310.355 403.884,310.469 404.027,310.559C404.172,310.649 404.363,310.694 404.604,310.694C404.928,310.694 405.204,310.613 405.432,310.451C405.659,310.289 405.846,310.085 405.99,309.839C406.134,309.593 406.238,309.326 406.305,309.038C406.371,308.75 406.403,308.486 406.403,308.246C406.403,308.054 406.386,307.865 406.35,307.679C406.313,307.493 406.251,307.325 406.161,307.175C406.071,307.025 405.947,306.902 405.792,306.806C405.636,306.71 405.443,306.662 405.216,306.662ZM410.85,313.214C410.142,313.97 409.302,314.522 408.33,314.87C407.357,315.218 406.332,315.392 405.252,315.392C404.22,315.392 403.281,315.226 402.435,314.897C401.589,314.567 400.865,314.108 400.266,313.52C399.666,312.932 399.201,312.227 398.871,311.405C398.541,310.583 398.376,309.686 398.376,308.714C398.376,307.754 398.556,306.866 398.916,306.05C399.275,305.234 399.768,304.526 400.392,303.926C401.016,303.326 401.744,302.855 402.579,302.513C403.413,302.171 404.304,302 405.252,302C406.067,302 406.859,302.12 407.628,302.36C408.396,302.6 409.077,302.96 409.671,303.44C410.265,303.92 410.738,304.52 411.093,305.24C411.446,305.96 411.624,306.806 411.624,307.778C411.624,308.498 411.524,309.134 411.327,309.686C411.129,310.238 410.864,310.7 410.535,311.072C410.205,311.444 409.826,311.723 409.4,311.909C408.975,312.095 408.527,312.188 408.06,312.188C407.58,312.188 407.196,312.074 406.908,311.846C406.62,311.618 406.476,311.33 406.476,310.982L406.386,310.982C406.206,311.27 405.93,311.543 405.558,311.801C405.186,312.059 404.729,312.188 404.189,312.188C403.374,312.188 402.743,311.918 402.3,311.378C401.855,310.838 401.634,310.136 401.634,309.272C401.634,308.768 401.718,308.27 401.886,307.778C402.054,307.286 402.294,306.848 402.605,306.464C402.918,306.08 403.29,305.771 403.722,305.537C404.153,305.303 404.634,305.186 405.162,305.186C405.618,305.186 406.002,305.282 406.313,305.474C406.626,305.666 406.83,305.9 406.926,306.176L406.943,306.176L407.088,305.456L408.689,305.456L407.988,308.858C407.964,309.026 407.931,309.212 407.889,309.416C407.847,309.62 407.826,309.812 407.826,309.992C407.826,310.196 407.864,310.367 407.942,310.505C408.021,310.643 408.174,310.712 408.401,310.712C408.87,310.712 409.257,310.46 409.563,309.956C409.869,309.452 410.021,308.774 410.021,307.922C410.021,307.202 409.901,306.563 409.662,306.005C409.422,305.447 409.089,304.979 408.663,304.601C408.236,304.223 407.729,303.938 407.142,303.746C406.554,303.554 405.911,303.458 405.216,303.458C404.46,303.458 403.767,303.593 403.137,303.863C402.507,304.133 401.97,304.505 401.525,304.979C401.082,305.453 400.736,306.011 400.491,306.653C400.245,307.295 400.122,307.988 400.122,308.732C400.122,309.524 400.251,310.238 400.509,310.874C400.767,311.51 401.13,312.053 401.598,312.503C402.065,312.953 402.624,313.298 403.271,313.539C403.92,313.778 404.634,313.898 405.414,313.898C406.386,313.898 407.223,313.742 407.925,313.429C408.627,313.119 409.271,312.686 409.859,312.134L410.85,313.214Z" style="fill:rgb(80,80,86);fill-rule:nonzero;"/>
        </g>
    </g>
</svg>
