<?xml version="1.0" encoding="UTF-8" standalone="no"?>
<!DOCTYPE svg PUBLIC "-//W3C//DTD SVG 1.1//EN" "http://www.w3.org/Graphics/SVG/1.1/DTD/svg11.dtd">
<svg width="100%" height="100%" viewBox="0 0 48 42" version="1.1" xmlns="http://www.w3.org/2000/svg" xmlns:xlink="http://www.w3.org/1999/xlink" xml:space="preserve" xmlns:serif="http://www.serif.com/" style="fill-rule:evenodd;clip-rule:evenodd;stroke-linecap:round;stroke-linejoin:round;stroke-miterlimit:2;">
    <g transform="matrix(1,0,0,1,-41,-207)">
        <g>
            <path d="M53,248L44,248C42.895,248 42,247.105 42,246L42,210C42,208.895 42.895,208 44,208L53,208C54.104,208 55,208.895 55,210L55,246C55,247.105 54.104,248 53,248Z" style="fill:none;stroke:rgb(80,80,86);stroke-width:2px;"/>
            <path d="M59,211L85,211C86.656,211 88,212.343 88,214L88,244C88,245.657 86.656,247 85,247L59,247" style="fill:none;stroke:rgb(80,80,86);stroke-width:2px;"/>
            <path d="M46,217L50,217" style="fill:none;stroke:rgb(80,80,86);stroke-width:2px;"/>
            <path d="M46,222L50,222" style="fill:none;stroke:rgb(80,80,86);stroke-width:2px;"/>
            <path d="M80,225L64,225C63.447,225 63,224.552 63,224L63,218C63,217.448 63.447,217 64,217L80,217C80.552,217 81,217.448 81,218L81,224C81,224.552 80.552,225 80,225Z" style="fill:none;stroke:rgb(80,80,86);stroke-width:2px;"/>
            <path d="M71,231L73,231" style="fill:none;stroke:rgb(80,80,86);stroke-width:2px;"/>
            <path d="M64,231L66,231" style="fill:none;stroke:rgb(80,80,86);stroke-width:2px;"/>
            <path d="M78,231L80,231" style="fill:none;stroke:rgb(80,80,86);stroke-width:2px;"/>
            <path d="M71,236L73,236" style="fill:none;stroke:rgb(80,80,86);stroke-width:2px;"/>
            <path d="M64,236L66,236" style="fill:none;stroke:rgb(80,80,86);stroke-width:2px;"/>
            <path d="M78,236L80,236" style="fill:none;stroke:rgb(80,80,86);stroke-width:2px;"/>
            <path d="M71,241L73,241" style="fill:none;stroke:rgb(80,80,86);stroke-width:2px;"/>
            <path d="M64,241L66,241" style="fill:none;stroke:rgb(80,80,86);stroke-width:2px;"/>
            <path d="M78,241L80,241" style="fill:none;stroke:rgb(80,80,86);stroke-width:2px;"/>
        </g>
    </g>
</svg>
