<svg width="36" height="44" viewBox="0 0 36 44" fill="none" xmlns="http://www.w3.org/2000/svg">
<path d="M4.15 8.8999L5.5 14.6499L4.15 20.3749L9.175 23.4749L12.25 28.4999L18 27.1499L23.75 28.4999L26.825 23.4749L31.85 20.3749L30.5 14.6499L31.85 8.8999L26.85 5.7999L23.75 0.774902L18 2.1499L12.275 0.799902L9.15 5.7999L4.15 8.8999ZM18.025 24.7499C15.3728 24.7499 12.8293 23.6963 10.9539 21.821C9.07857 19.9456 8.025 17.4021 8.025 14.7499C8.025 12.0977 9.07857 9.5542 10.9539 7.67883C12.8293 5.80347 15.3728 4.7499 18.025 4.7499C23.525 4.7499 28 9.2249 28 14.7249C28 20.2749 23.525 24.7499 18.025 24.7499ZM17.975 22.2499C13.825 22.2499 10.5 18.8999 10.5 14.7499C10.5 10.6249 13.825 7.2499 17.975 7.2499C22.125 7.2499 25.5 10.6249 25.5 14.7499C25.5 18.8999 22.125 22.2499 17.975 22.2499ZM27.575 24.9999L24.375 30.5999L19.175 29.4249L25.5 43.9999L29 38.4999H35.25L27.575 24.9999ZM8.325 25.1749L11.45 30.7999L16.775 29.5249L10.5 43.9999L7 38.4999H0.75L8.325 25.1749Z" fill="white"/>
</svg>
